<svg width="15" height="15" viewBox="0 0 10 10" fill="none" xmlns="http://www.w3.org/2000/svg">
<path d="M8.125 2.5H1.875C1.52982 2.5 1.25 2.77982 1.25 3.125V3.95833C1.25 4.3035 1.52982 4.58333 1.875 4.58333H3.125H6.875H8.125C8.47017 4.58333 8.75 4.3035 8.75 3.95833V3.125C8.75 2.77982 8.47017 2.5 8.125 2.5Z" fill="white"/>
<path d="M5 1.87501C5 1.29971 5.46637 0.833344 6.04167 0.833344H6.25C6.71025 0.833344 7.08333 1.20644 7.08333 1.66668C7.08333 2.12691 6.71025 2.50001 6.25 2.50001H5V1.87501Z" stroke="white" stroke-width="0.625"/>
<path d="M5.00002 1.87501C5.00002 1.29971 4.53365 0.833344 3.95835 0.833344H3.75002C3.28978 0.833344 2.91669 1.20644 2.91669 1.66668C2.91669 2.12691 3.28978 2.50001 3.75002 2.50001H5.00002V1.87501Z" stroke="white" stroke-width="0.625"/>
<path opacity="0.3" fill-rule="evenodd" clip-rule="evenodd" d="M1.66669 5.20834V7.50001C1.66669 8.42047 2.41288 9.16668 3.33335 9.16668H4.66669V5.20834H1.66669ZM5.29169 5.20834V9.16668H6.66669C7.58715 9.16668 8.33335 8.42047 8.33335 7.50001V5.20834H5.29169Z" fill="white"/>
</svg>
