<svg width="7" height="9" viewBox="0 0 7 9" fill="#D6347E" xmlns="http://www.w3.org/2000/svg">
<path d="M1.37083 8.0123C1.15119 8.01106 0.934306 7.96556 0.734376 7.87877C0.518137 7.78778 0.333906 7.63931 0.203683 7.45108C0.07346 7.26284 0.00275 7.0428 0 6.81724V1.19583C0.00275 0.97027 0.07346 0.750227 0.203683 0.561998C0.333906 0.37377 0.518137 0.225288 0.734376 0.134304C0.983177 0.022121 1.26001 -0.0210861 1.53328 0.00960386C1.80656 0.0402939 2.06532 0.143647 2.28006 0.307884L5.84702 3.1186C5.98691 3.2249 6.09986 3.35993 6.17751 3.51367C6.25515 3.6674 6.29546 3.83587 6.29546 4.00654C6.29546 4.1772 6.25515 4.34567 6.17751 4.49941C6.09986 4.65314 5.98691 4.78818 5.84702 4.89448L2.28006 7.70518C2.02295 7.90423 1.70186 8.01267 1.37083 8.0123ZM1.37083 1.33603V6.61028L4.76993 4.00654L1.37083 1.33603Z" fill="#D6347E"/>
</svg>
