<svg width="10" height="9" viewBox="0 0 10 9" fill="white" xmlns="http://www.w3.org/2000/svg">
<path d="M9.41718 0.313148C9.395 0.222433 9.29309 0.132742 9.18964 0.113266C8.58934 0 8.11936 0 7.65142 0C5.72681 0 4.57266 0.905364 3.71103 2.09927H1.7681C1.46333 2.09953 1.10521 2.29403 0.968545 2.53364L0.0468999 4.15422C0.0184177 4.20948 0.00248593 4.26911 0 4.32975C4.2855e-05 4.43415 0.0472127 4.53426 0.131139 4.60807C0.215065 4.68188 0.328876 4.72335 0.447552 4.72336H2.38294L1.96394 5.09187C1.75205 5.2782 1.72165 5.62092 1.96394 5.83399L2.91296 6.66889C3.12095 6.85236 3.51246 6.88465 3.75709 6.66889L4.17609 6.30038V8.00348C4.17614 8.10788 4.22331 8.20799 4.30723 8.2818C4.39115 8.35562 4.50497 8.39708 4.62365 8.3971C4.69259 8.39485 4.76039 8.38084 4.82326 8.35584L6.6639 7.54581C6.93664 7.42614 7.15809 7.11119 7.15809 6.84289V5.13005C8.51156 4.3705 9.54509 3.35213 9.54509 1.66799C9.54682 1.25465 9.54682 0.841299 9.41718 0.313148ZM7.15985 2.7553C7.01235 2.75526 6.86819 2.71676 6.74558 2.64466C6.62297 2.57255 6.52742 2.47009 6.471 2.35022C6.41458 2.23034 6.39985 2.09844 6.42864 1.97119C6.45743 1.84395 6.52847 1.72707 6.63277 1.63534C6.73707 1.54361 6.86995 1.48115 7.0146 1.45585C7.15925 1.43055 7.30919 1.44355 7.44545 1.4932C7.5817 1.54286 7.69816 1.62695 7.78009 1.73483C7.86203 1.8427 7.90576 1.96954 7.90576 2.09927C7.90564 2.27326 7.82702 2.44009 7.68715 2.5631C7.54728 2.68611 7.35762 2.75524 7.15985 2.7553Z" fill="white"/>
</svg>
