<svg width="20" height="20" viewBox="0 0 12 12" fill="none" xmlns="http://www.w3.org/2000/svg">
<g clip-path="url(#clip0_1_99)">
<mask id="mask0_1_99" style="mask-type:luminance" maskUnits="userSpaceOnUse" x="0" y="1" width="12" height="10">
<path d="M12 1.05884H0V10.9412H12V1.05884Z" fill="white"/>
</mask>
<g mask="url(#mask0_1_99)">
<path d="M6.26421 10.9412C6.15679 10.9412 6.05091 10.9117 5.95577 10.851L2.66729 8.78802C2.48007 8.67155 2.36652 8.45675 2.36652 8.2255V3.77302C2.36652 3.54179 2.4816 3.3286 2.66729 3.21052L5.95424 1.1491C6.14299 1.03102 6.37623 1.02938 6.56652 1.14582C6.75679 1.26226 6.87342 1.47709 6.87342 1.71161V10.2902C6.87342 10.5247 6.75679 10.7396 6.56652 10.856C6.47291 10.9134 6.36857 10.9412 6.26268 10.9412H6.26421ZM3.58493 7.85323L5.65347 9.15042V2.84974L3.58493 4.14694V7.85487V7.85323Z" fill="white"/>
<path d="M2.97391 8.87892H1.75703C0.787214 8.87892 0 8.03597 0 7.00117V5.00043C0 3.96397 0.788746 3.12268 1.75703 3.12268H2.97391C3.31151 3.12268 3.58465 3.41459 3.58465 3.77538V8.22951C3.58465 8.59028 3.31151 8.88217 2.97391 8.88217V8.87892ZM1.75703 4.4248C1.46087 4.4248 1.21995 4.68227 1.21995 4.99878V6.99953C1.21995 7.31604 1.46087 7.57351 1.75703 7.57351H2.36317V4.4248H1.75703Z" fill="white"/>
<path d="M10.0142 10.2077C9.85773 10.2077 9.70124 10.1438 9.58307 10.0175C9.34519 9.7633 9.34519 9.35007 9.58307 9.09588C11.1789 7.3903 11.1789 4.61386 9.58307 2.90667C9.34519 2.65248 9.34519 2.23921 9.58307 1.98502C9.82089 1.73082 10.2076 1.73082 10.4455 1.98502C12.5171 4.19895 12.5171 7.80357 10.4455 10.0175C10.3257 10.1454 10.1708 10.2077 10.0142 10.2077Z" fill="white"/>
<path d="M8.21919 8.29004C8.06263 8.29004 7.90613 8.22609 7.78797 8.09981C7.55009 7.84563 7.55009 7.43235 7.78797 7.17816C8.08105 6.86493 8.24369 6.44674 8.24369 6.00232C8.24369 5.55789 8.08261 5.14134 7.78797 4.82647C7.55009 4.57228 7.55009 4.15901 7.78797 3.90482C8.02578 3.65062 8.41253 3.65062 8.65035 3.90482C9.17517 4.46568 9.46366 5.21022 9.46366 6.00232C9.46366 6.79441 9.17517 7.53896 8.65035 8.09981C8.5307 8.22771 8.37569 8.29004 8.21919 8.29004Z" fill="white"/>
</g>
</g>
<defs>
<clipPath id="clip0_1_99">
<rect width="12" height="12" fill="white"/>
</clipPath>
</defs>
</svg>
